# xmcd CD database file
#
# Track frame offsets:
#	150
#	15745
#	34830
#	52096
#	76807
#	105564
#	123036
#	141357
#	160607
#	174209
#	185127
#	207386
#	221822
#	240302
#	256797
#	271154
#
# Disc length: 3803 seconds
#
# Revision: 1
# Processed by: cddbd v1.4PL0 Copyright (c) Steve Scherf et al.
# Submitted via: CDex 1.40Beta9
#
DISCID=d50ed910
DTITLE=Кроссроудс - Живая коллекция
DYEAR=2001
DGENRE=Blues
TTITLE0=Cross Road Blues
TTITLE1=Hoochie Coochie Man
TTITLE2=Statesboro Blues
TTITLE3=Leave My Girl
TTITLE4=Diamond Rain
TTITLE5=Come Home
TTITLE6=Can't Get Away
TTITLE7=Be What You Are
TTITLE8=The Song
TTITLE9=Bright Lights Big City
TTITLE10=Сколько можно терпеть
TTITLE11=Foxy Lady
TTITLE12=Junping Jack Flash
TTITLE13=Venus
TTITLE14=Long Tall Sally
TTITLE15=Johnny B. Goode
EXTD=YEAR: 2001 ID3G: 0
EXTT0=
EXTT1=
EXTT2=
EXTT3=
EXTT4=
EXTT5=
EXTT6=
EXTT7=
EXTT8=
EXTT9=
EXTT10=
EXTT11=
EXTT12=
EXTT13=
EXTT14=
EXTT15=
PLAYORDER=
